<svg width="498" height="496" viewBox="0 0 498 496" fill="none" xmlns="http://www.w3.org/2000/svg">
  <path
    d="M2.05293 281.008C1.25293 341.408 9.7196 404.174 14.0529 428.008L20.5529 460.008H78.0529V428.008C88.4529 428.008 90.3863 383.674 90.0529 361.508C91.5529 328.008 95.6529 260.108 100.053 256.508C104.453 252.908 104.886 280.008 104.553 294.008V493.008H396.553V320.508C396.553 317.708 400.886 279.674 403.053 261.008L412.053 334.008C403.253 334.008 415.72 396.674 423.053 428.008V460.008H480.553L490.553 428.008C490.553 428.008 501.985 296.252 490.553 226.508C480.553 165.5 409.991 82.4021 396.553 68.5076C391.112 62.8821 348.053 52.0076 361.053 52.0076C371.453 52.0076 356.72 19.0076 348.053 2.50761C297.886 4.67428 191.753 7.70761 168.553 2.50761C145.353 -2.69239 139.886 33.3409 140.053 52.0076C140.053 53.6076 112.553 63.0076 104.553 75.5076C96.0529 75.5076 84.3237 89.9779 65.0529 117.508C40.5529 152.508 3.05293 205.508 2.05293 281.008Z"
    fill="white" />
  <path d="M141.604 418.596C141.41 418.238 141.366 418.186 141.5 418.5C141.523 418.554 141.558 418.586 141.604 418.596Z"
    fill="white" />
  <path
    d="M167 5L156 18L239 90V101L248 99V90L344.5 18L335 5M13 429.5C26.6667 430 55.1 429.2 59.5 422L79 429.5M248.5 97.5V492.5M139.5 53C175.333 71.6667 247.3 107.1 248.5 99.5C250 90 300 106.5 370 53M394 68C384.667 101.167 371.6 172.7 394 193.5L405 265.5M104.5 71.5C111.833 102.333 124.3 167.3 115.5 180.5C106.7 193.7 99 245.833 99 265.5M425.5 426H486.5M106.5 455.5H396M160 455.5C154.08 443.513 143.141 421.433 141.604 418.596M141.604 418.596C141.41 418.238 141.366 418.186 141.5 418.5C141.523 418.554 141.558 418.586 141.604 418.596ZM141.604 418.596C144.541 419.25 193.354 331.969 184 330C176.4 328.4 268.167 329.333 315 330C325.5 355.833 349.4 409.7 361 418.5C372.6 427.3 348 440.5 348 455.5M2.05293 281.008C1.25293 341.408 9.7196 404.174 14.0529 428.008L20.5529 460.008H78.0529V428.008C88.4529 428.008 90.3863 383.674 90.0529 361.508C91.5529 328.008 95.6529 260.108 100.053 256.508C104.453 252.908 104.886 280.008 104.553 294.008V493.008H396.553V320.508C396.553 317.708 400.886 279.674 403.053 261.008L412.053 334.008C403.253 334.008 415.72 396.674 423.053 428.008V460.008H480.553L490.553 428.008C490.553 428.008 501.985 296.252 490.553 226.508C480.553 165.5 409.991 82.4021 396.553 68.5076C391.112 62.8821 348.053 52.0076 361.053 52.0076C371.453 52.0076 356.72 19.0076 348.053 2.50761C297.886 4.67428 191.753 7.70761 168.553 2.50761C145.353 -2.69239 139.886 33.3409 140.053 52.0076C140.053 53.6076 112.553 63.0076 104.553 75.5076C96.0529 75.5076 84.3237 89.9779 65.0529 117.508C40.5529 152.508 3.05293 205.508 2.05293 281.008Z"
    stroke="black" stroke-width="4" />
  <path
    d="M133.748 200.311L140.135 233.833L133.228 235.149L126.841 201.627L133.748 200.311ZM149.83 212.087L150.857 217.474L135.615 220.378L134.589 214.991L149.83 212.087ZM148.713 197.459L149.744 202.87L132.891 206.081L131.86 200.67L148.713 197.459Z"
    fill="black" />
  <path
    d="M189.964 208.169L190.169 209.773C190.497 212.346 190.443 214.7 190.007 216.835C189.57 218.97 188.809 220.839 187.722 222.443C186.633 224.031 185.254 225.317 183.584 226.302C181.929 227.285 180.032 227.913 177.893 228.186C175.77 228.458 173.776 228.326 171.913 227.792C170.064 227.256 168.406 226.357 166.937 225.096C165.467 223.818 164.245 222.202 163.271 220.247C162.312 218.291 161.669 216.026 161.34 213.453L161.135 211.849C160.805 209.26 160.859 206.906 161.297 204.787C161.734 202.652 162.495 200.783 163.582 199.179C164.685 197.573 166.063 196.279 167.718 195.296C169.388 194.311 171.284 193.683 173.408 193.412C175.546 193.139 177.54 193.271 179.388 193.806C181.252 194.34 182.912 195.247 184.367 196.526C185.837 197.803 187.052 199.42 188.01 201.377C188.982 203.317 189.634 205.581 189.964 208.169ZM183.124 210.672L182.914 209.022C182.684 207.224 182.32 205.664 181.82 204.341C181.32 203.019 180.694 201.933 179.939 201.084C179.185 200.235 178.321 199.637 177.347 199.289C176.372 198.925 175.295 198.818 174.117 198.969C172.939 199.119 171.923 199.493 171.07 200.09C170.231 200.67 169.552 201.465 169.036 202.476C168.534 203.485 168.208 204.692 168.057 206.098C167.905 207.503 167.944 209.105 168.174 210.903L168.385 212.554C168.612 214.336 168.977 215.896 169.478 217.234C169.978 218.557 170.606 219.65 171.362 220.514C172.116 221.363 172.981 221.969 173.957 222.333C174.932 222.697 176.009 222.804 177.187 222.653C178.365 222.503 179.381 222.129 180.234 221.532C181.087 220.935 181.764 220.132 182.265 219.122C182.765 218.098 183.09 216.883 183.241 215.477C183.391 214.056 183.352 212.455 183.124 210.672Z"
    fill="black" />
  <path
    d="M200.703 190.883L213.404 190.081C216.008 189.917 218.27 190.165 220.191 190.827C222.127 191.487 223.65 192.55 224.76 194.014C225.87 195.478 226.496 197.325 226.636 199.555C226.752 201.38 226.539 202.967 225.998 204.316C225.471 205.649 224.674 206.787 223.606 207.731C222.553 208.659 221.295 209.427 219.83 210.036L217.682 211.346L206.641 212.043L206.249 206.573L214.459 206.054C215.691 205.976 216.699 205.694 217.482 205.206C218.265 204.718 218.835 204.071 219.191 203.266C219.563 202.46 219.717 201.542 219.652 200.513C219.583 199.421 219.32 198.491 218.865 197.721C218.409 196.951 217.755 196.382 216.902 196.013C216.049 195.644 214.998 195.499 213.751 195.578L208.067 195.937L209.87 224.497L202.853 224.94L200.703 190.883ZM221.893 223.738L213.169 209.048L220.581 208.533L229.381 222.937L229.401 223.264L221.893 223.738Z"
    fill="black" />
  <path
    d="M252.659 188.912L252.777 223.037L245.769 223.061L245.651 188.936L252.659 188.912ZM263.159 188.876L263.178 194.383L235.334 194.48L235.315 188.972L263.159 188.876Z"
    fill="black" />
  <path
    d="M292.013 190.28L299.009 190.685L297.706 213.195C297.554 215.815 296.864 217.99 295.637 219.719C294.426 221.448 292.811 222.709 290.793 223.5C288.791 224.291 286.519 224.614 283.976 224.466C281.433 224.319 279.198 223.736 277.269 222.716C275.356 221.698 273.89 220.259 272.871 218.4C271.867 216.542 271.441 214.303 271.593 211.682L272.897 189.173L279.916 189.579L278.613 212.089C278.524 213.617 278.693 214.879 279.121 215.874C279.549 216.869 280.202 217.619 281.08 218.124C281.974 218.63 283.045 218.919 284.293 218.991C285.572 219.065 286.67 218.902 287.585 218.501C288.516 218.101 289.243 217.431 289.767 216.491C290.307 215.552 290.621 214.318 290.709 212.789L292.013 190.28Z"
    fill="black" />
  <path
    d="M339.625 195.272L335.392 229.133L328.415 228.261L317.647 203.862L314.81 226.56L307.833 225.688L312.066 191.826L319.043 192.699L329.831 217.124L332.671 194.402L339.625 195.272Z"
    fill="black" />
  <path
    d="M370.685 229.937L369.663 235.325L351.817 231.941L352.839 226.553L370.685 229.937ZM360.432 198.841L354.074 232.369L347.166 231.059L353.524 197.531L360.432 198.841ZM371.106 215.012L370.11 220.262L354.59 217.319L355.586 212.069L371.106 215.012ZM375.998 201.793L374.972 207.205L357.149 203.825L358.175 198.414L375.998 201.793Z"
    fill="black" />
</svg>